<svg xmlns="http://www.w3.org/2000/svg" width="512" height="512" viewBox="0 0 512 512" version="1.1">
	<path d="M 0.083 0.367 C 0.313 0.568, 56.750 50.127, 125.500 110.498 L 250.500 220.263 250.488 240.132 C 250.482 251.059, 250.369 302.224, 250.238 353.832 L 250 447.664 230.929 448.849 C 134.498 454.843, 101.399 484.925, 171.380 502.969 C 197.039 509.585, 229.341 512.521, 267.500 511.706 C 321.285 510.556, 361.181 502.092, 375.642 488.762 C 380.584 484.207, 381.780 480.409, 379.599 476.192 C 372.178 461.841, 332.606 451.100, 277.250 448.411 L 263 447.719 263.144 385.610 C 263.223 351.449, 263.560 300.229, 263.894 271.786 L 264.500 220.073 388 110.413 C 455.925 50.100, 511.687 0.584, 511.917 0.376 C 512.146 0.169, 396.983 0, 256 0 C 115.017 0, -0.146 0.165, 0.083 0.367 M 37.519 15.882 C 47.593 25.621, 256.334 208, 257.408 208 C 258.133 208, 305.952 166.038, 363.673 114.750 C 421.394 63.463, 470.794 19.587, 473.451 17.250 L 478.282 13 256.410 13 L 34.538 13 37.519 15.882 M 288 86.035 C 275.356 88.681, 262.773 98.624, 256.852 110.646 C 253.760 116.924, 253.500 118.193, 253.500 126.977 C 253.500 138.050, 255.584 143.584, 262.275 150.275 C 273.462 161.462, 294.495 163.225, 309.937 154.270 C 333.184 140.788, 339.353 111.204, 322.336 94.802 C 314.359 87.114, 300.163 83.489, 288 86.035" stroke="none" fill="black" fill-rule="evenodd"/>
</svg>